<svg xmlns="http://www.w3.org/2000/svg" xmlns:xlink="http://www.w3.org/1999/xlink" xmlns:lucid="lucid" width="791.21" height="1450.98"><g transform="translate(-215.07378472222223 -1038)" lucid:page-tab-id="0_0"><path d="M0 1000h1500v1500H0z" fill="#fff"/><path d="M391.1 1186a6 6 0 0 1 6-6h130.46a6 6 0 0 1 6 6v95.3a6 6 0 0 1-6 6H397.1a6 6 0 0 1-6-6z" stroke="#1071e5" stroke-width="4" fill="#cfe4ff"/><use xlink:href="#a" transform="matrix(1,0,0,1,403.09013820318006,1192) translate(1.1341145833333286 33.99652777777778)"/><use xlink:href="#b" transform="matrix(1,0,0,1,403.09013820318006,1192) translate(73.48654513888889 33.99652777777778)"/><use xlink:href="#c" transform="matrix(1,0,0,1,403.09013820318006,1192) translate(109.85807291666667 33.99652777777778)"/><use xlink:href="#d" transform="matrix(1,0,0,1,403.09013820318006,1192) translate(35.27039930555556 66.26215277777777)"/><path d="M527.64 1550.34c36.08 0 65.32 29.24 65.32 65.32 0 36.07-29.24 65.3-65.32 65.3H397c-36.06 0-65.3-29.23-65.3-65.3 0-36.08 29.24-65.32 65.3-65.32z" stroke="#d916a8" stroke-width="4" fill="#ff80df"/><use xlink:href="#e" transform="matrix(1,0,0,1,336.6956380208337,1555.3410287475615) translate(51.13020833333334 68.79340277777777)"/><use xlink:href="#f" transform="matrix(1,0,0,1,336.6956380208337,1555.3410287475615) translate(102.90972222222223 68.79340277777777)"/><use xlink:href="#g" transform="matrix(1,0,0,1,336.6956380208337,1555.3410287475615) translate(140.90885416666669 68.79340277777777)"/><path d="M894.82 1539.26a8 8 0 0 1 9.6 0l97.06 72.8a4.5 4.5 0 0 1 0 7.2l-97.06 72.8a8 8 0 0 1-9.6 0l-97.06-72.8a4.5 4.5 0 0 1 0-7.2z" stroke="#ff80df" stroke-width="4" fill="#ffd6f5"/><use xlink:href="#h" transform="matrix(1,0,0,1,797.9585967188598,1540.6616512345681) translate(42.50521701388889 83.05121527777777)"/><use xlink:href="#i" transform="matrix(1,0,0,1,797.9585967188598,1540.6616512345681) translate(94.28473090277778 83.05121527777777)"/><path d="M649.53 1616.13h-54.07v-.95h54.07zm128.04 0h-38.2v-.95h38.2z" stroke="#3a414a" stroke-width=".05" fill="#3a414a"/><path d="M595.47 1616.13h-.53l.02-.46v-.5h.5z" fill="#3a414a"/><path stroke="#3a414a" stroke-width=".05" fill="#3a414a"/><path d="M792.33 1615.66l-14.26 4.63V1611z" fill="#3a414a"/><path d="M793.87 1615.66l-16.28 5.3v-10.6zm-15.33 3.98l12.25-3.98-12.26-4z" stroke="#3a414a" stroke-width=".05" fill="#3a414a"/><use xlink:href="#j" transform="matrix(1,0,0,1,649.528284209401,1604.9015600887349) translate(0.005000000000002558 17.22222222222222)"/><use xlink:href="#k" transform="matrix(1,0,0,1,649.528284209401,1604.9015600887349) translate(45.01368055555556 17.22222222222222)"/><path d="M899.62 1535.16V1506a6 6 0 0 0-6-6h-350.4a6 6 0 0 0-6 6v26.66" stroke="#3a414a" fill="none"/><path d="M900.1 1535.7l-.48-.04-.48.03v-.56h.95z" stroke="#3a414a" stroke-width=".05" fill="#3a414a"/><path d="M537.23 1547.42l-4.64-14.26h9.26z" stroke="#3a414a" fill="#3a414a"/><use xlink:href="#l" transform="matrix(1,0,0,1,644.28638950923,1504) translate(0.0049999999999954525 17.22222222222222)"/><use xlink:href="#m" transform="matrix(1,0,0,1,644.28638950923,1504) translate(46.63694444444444 17.22222222222222)"/><use xlink:href="#n" transform="matrix(1,0,0,1,644.28638950923,1504) translate(110.28277777777777 17.22222222222222)"/><path d="M833.2 1753.96h-48.1v-.95h48.1zm66.9-6.45l-.1 1-.22 1-.4.93-.52.87-.66.77-.77.66-.87.53-.94.4-1 .22-.98.08h-.66v-.95h.62l.88-.06.85-.2.8-.33.74-.44.65-.57.57-.67.44-.73.33-.8.2-.85.07-.88v-51.3h.95z" stroke="#3a414a" stroke-width=".05" fill="#3a414a"/><path d="M899.62 1695.66l.47-.04v.55h-.96v-.55z" fill="#3a414a"/><path stroke="#3a414a" stroke-width=".05" fill="#3a414a"/><path d="M784.6 1758.12l-14.26-4.63 14.27-4.65z" fill="#3a414a"/><path d="M785.08 1758.78l-16.28-5.3 16.28-5.28zm-13.2-5.3l12.25 4v-7.97z" stroke="#3a414a" stroke-width=".05" fill="#3a414a"/><use xlink:href="#o" transform="matrix(1,0,0,1,833.1954308787016,1729.8268292882804) translate(8.685555555555556 17.22222222222222)"/><use xlink:href="#p" transform="matrix(1,0,0,1,833.1954308787016,1729.8268292882804) translate(0.004999999999999005 43.034722222222214)"/><use xlink:href="#n" transform="matrix(1,0,0,1,833.1954308787016,1729.8268292882804) translate(35.17861111111111 43.034722222222214)"/><path d="M591.7 1753.5h-44.67a6 6 0 0 1-6-6V1698" stroke="#3a414a" fill="none"/><path d="M592.07 1753.96h-.4v-.95h.65z" stroke="#3a414a" stroke-width=".05" fill="#3a414a"/><path d="M541.03 1683.25l4.63 14.26h-9.27z" stroke="#3a414a" fill="#3a414a"/><path d="M527.64 1852.68c36.08 0 65.32 29.24 65.32 65.3 0 36.1-29.24 65.33-65.32 65.33H397c-36.06 0-65.3-29.23-65.3-65.3 0-36.08 29.24-65.32 65.3-65.32z" stroke="#d916a8" stroke-width="4" fill="#ff80df"/><use xlink:href="#q" transform="matrix(1,0,0,1,336.6956380208337,1857.6793778620067) translate(51.37977430555556 68.79340277777777)"/><use xlink:href="#f" transform="matrix(1,0,0,1,336.6956380208337,1857.6793778620067) translate(102.66015625 68.79340277777777)"/><use xlink:href="#g" transform="matrix(1,0,0,1,336.6956380208337,1857.6793778620067) translate(140.65928819444446 68.79340277777777)"/><path d="M462.8 1834.3h-.95v-43.8h.95zm0-91.14h-.95v-59.7h.95z" stroke="#3a414a" stroke-width=".05" fill="#3a414a"/><path d="M462.8 1683.48h-.95v-.5h.95z" fill="#3a414a"/><path stroke="#3a414a" stroke-width=".05" fill="#3a414a"/><path d="M462.33 1849.06l-4.64-14.26h9.26z" fill="#3a414a"/><path d="M462.33 1850.6l-5.3-16.28h10.6zm-3.98-15.33l3.98 12.25 3.98-12.25z" stroke="#3a414a" stroke-width=".05" fill="#3a414a"/><use xlink:href="#r" transform="matrix(1,0,0,1,415.25680486984675,1743.1644844714508) translate(0.005000000000002558 17.22222222222222)"/><use xlink:href="#s" transform="matrix(1,0,0,1,415.25680486984675,1743.1644844714508) translate(46.801875 17.22222222222222)"/><use xlink:href="#t" transform="matrix(1,0,0,1,415.25680486984675,1743.1644844714508) translate(11.901701388888888 43.034722222222214)"/><path d="M260.48 1911.98l.06.88.2.84.34.8.45.74.56.66.65.56.74.46.8.33.84.2.88.07h63.18v.95h-63.22l-1-.08-.98-.25-.94-.38-.87-.54-.78-.65-.66-.78-.53-.87-.4-.93-.23-1-.08-1v-41.86h.96zm111.18-98.5l1 .23.93.4.85.53.78.66.66.76.52.87.4.93.22 1 .08 1v17.62h-.95v-17.6l-.07-.88-.2-.84-.33-.8-.45-.74-.57-.66-.66-.56-.75-.46-.8-.33-.84-.2-.87-.06h-104.6l-.9.07-.84.2-.8.34-.75.46-.66.56-.57.66-.45.74-.33.8-.2.84-.07.88v28.75h-.96v-28.78l.08-1 .24-1 .4-.92.52-.87.66-.77.77-.67.86-.54.94-.4 1-.23.98-.08h104.69z" stroke="#3a414a" stroke-width=".05" fill="#3a414a"/><path d="M329.7 1917.98v.5h-.52v-.96h.53z" fill="#3a414a"/><path stroke="#3a414a" stroke-width=".05" fill="#3a414a"/><path d="M376.65 1852.25l-4.64-14.27h9.28z" fill="#3a414a"/><path d="M376.65 1853.78l-5.3-16.27h10.58zm-3.98-15.32l3.98 12.25 3.98-12.24z" stroke="#3a414a" stroke-width=".05" fill="#3a414a"/><use xlink:href="#j" transform="matrix(1,0,0,1,215.07378472222223,1848.6281868023852) translate(0.005000000000002558 17.22222222222222)"/><use xlink:href="#k" transform="matrix(1,0,0,1,215.07378472222223,1848.6281868023852) translate(45.01368055555556 17.22222222222222)"/><path d="M527.64 2135.65c36.08 0 65.32 29.24 65.32 65.32 0 36.07-29.24 65.3-65.32 65.3H397c-36.06 0-65.3-29.23-65.3-65.3 0-36.07 29.24-65.32 65.3-65.32z" stroke="#d916a8" stroke-width="4" fill="#ff80df"/><use xlink:href="#u" transform="matrix(1,0,0,1,336.6956380208337,2140.6518856095677) translate(47.413845486111114 68.79340277777777)"/><use xlink:href="#v" transform="matrix(1,0,0,1,336.6956380208337,2140.6518856095677) translate(144.62521701388889 68.79340277777777)"/><path d="M462.8 2117.27h-.95v-34.13h.95zm0-81.45h-.95v-50h.95z" stroke="#3a414a" stroke-width=".05" fill="#3a414a"/><path d="M462.8 1985.82h-.95v-.5h.95z" fill="#3a414a"/><path stroke="#3a414a" stroke-width=".05" fill="#3a414a"/><path d="M462.33 2132.03l-4.64-14.26h9.26z" fill="#3a414a"/><path d="M462.33 2133.57l-5.3-16.28h10.6zm-3.98-15.33l3.98 12.26 3.98-12.26z" stroke="#3a414a" stroke-width=".05" fill="#3a414a"/><use xlink:href="#r" transform="matrix(1,0,0,1,407.9998604254023,2035.819912902454) translate(0.005000000000002558 17.22222222222222)"/><use xlink:href="#w" transform="matrix(1,0,0,1,407.9998604254023,2035.819912902454) translate(46.801875 17.22222222222222)"/><use xlink:href="#x" transform="matrix(1,0,0,1,407.9998604254023,2035.819912902454) translate(2.5136805555555526 43.034722222222214)"/><use xlink:href="#y" transform="matrix(1,0,0,1,407.9998604254023,2035.819912902454) translate(43.22548611111111 43.034722222222214)"/><path d="M388.85 1345.8a7.8 7.8 0 0 1 7.55-5.8h160.38a4.6 4.6 0 0 1 4.46 5.8l-25.44 95.38a7.8 7.8 0 0 1-7.54 5.8h-160.4a4.6 4.6 0 0 1-4.44-5.8z" stroke="#54c45e" stroke-width="4" fill="#c3f7c8"/><use xlink:href="#z" transform="matrix(1,0,0,1,366.8688802713107,1345) translate(17.70552083333333 56.76605902777778)"/><use xlink:href="#A" transform="matrix(1,0,0,1,366.8688802713107,1345) translate(72.20855902777778 56.76605902777778)"/><use xlink:href="#B" transform="matrix(1,0,0,1,366.8688802713107,1345) translate(111.16255208333334 56.76605902777778)"/><path d="M462.33 1449.48V1531.96" stroke="#3a414a" fill="none"/><path d="M462.8 1449.5h-.95v-.52h.95z" stroke="#3a414a" stroke-width=".05" fill="#3a414a"/><path d="M462.33 1546.72l-4.64-14.26h9.26z" stroke="#3a414a" fill="#3a414a"/><path d="M624.07 2201.44h-28.6v-.95h28.6zm80.54 0H691.9v-.95h12.73z" stroke="#3a414a" stroke-width=".05" fill="#3a414a"/><path d="M595.47 2201.44h-.53l.02-.45v-.5h.5z" fill="#3a414a"/><path stroke="#3a414a" stroke-width=".05" fill="#3a414a"/><path d="M719.37 2200.97l-14.26 4.63v-9.27z" fill="#3a414a"/><path d="M720.9 2200.97l-16.27 5.3v-10.6zm-15.32 3.98l12.26-3.98-12.26-3.98z" stroke="#3a414a" stroke-width=".05" fill="#3a414a"/><use xlink:href="#C" transform="matrix(1,0,0,1,624.068951127749,2177.3061669507406) translate(0.005000000000002558 17.22222222222222)"/><use xlink:href="#D" transform="matrix(1,0,0,1,624.068951127749,2177.3061669507406) translate(22.192500000000003 17.22222222222222)"/><use xlink:href="#E" transform="matrix(1,0,0,1,624.068951127749,2177.3061669507406) translate(38.468541666666674 17.22222222222222)"/><use xlink:href="#F" transform="matrix(1,0,0,1,624.068951127749,2177.3061669507406) translate(5.781909722222224 43.034722222222214)"/><path d="M388.85 2385.8a7.8 7.8 0 0 1 7.55-5.8h160.38a4.6 4.6 0 0 1 4.46 5.8l-25.44 95.38a7.8 7.8 0 0 1-7.54 5.8h-160.4a4.6 4.6 0 0 1-4.44-5.8z" stroke="#54c45e" stroke-width="4" fill="#c3f7c8"/><use xlink:href="#G" transform="matrix(1,0,0,1,366.8688802713107,2385) translate(26.456605902777774 56.76605902777778)"/><use xlink:href="#H" transform="matrix(1,0,0,1,366.8688802713107,2385) translate(90.68186631944444 56.76605902777778)"/><path d="M827.13 2361.62h-.95v-21.38h.96zm0-42.9h-.95v-37.25h.96z" stroke="#3a414a" stroke-width=".05" fill="#3a414a"/><path d="M826.66 2280.97l.48-.03v.54h-.96v-.54z" fill="#3a414a"/><path stroke="#3a414a" stroke-width=".05" fill="#3a414a"/><path d="M826.66 2376.38l-4.63-14.26h9.26z" fill="#3a414a"/><path d="M826.66 2377.92l-5.3-16.28h10.6zm-3.98-15.33l3.98 12.24 3.98-12.25z" stroke="#3a414a" stroke-width=".05" fill="#3a414a"/><g><use xlink:href="#I" transform="matrix(1,0,0,1,789.7200520833334,2318.7282267390315) translate(0.005000000000002558 17.22222222222222)"/></g><path d="M462.33 2377.5v-92.83" stroke="#3a414a" fill="none"/><path d="M462.8 2378h-.95v-.5h.95z" stroke="#3a414a" stroke-width=".05" fill="#3a414a"/><path d="M462.33 2269.9l4.63 14.27h-9.27z" stroke="#3a414a" fill="#3a414a"/><path d="M606.98 1705.8a7.8 7.8 0 0 1 7.55-5.8h160.4a4.6 4.6 0 0 1 4.44 5.8l-25.44 95.38a7.8 7.8 0 0 1-7.54 5.8H586a4.6 4.6 0 0 1-4.45-5.8z" stroke="#54c45e" stroke-width="4" fill="#c3f7c8"/><g><use xlink:href="#G" transform="matrix(1,0,0,1,585,1705) translate(26.456605902777774 56.76605902777778)"/><use xlink:href="#H" transform="matrix(1,0,0,1,585,1705) translate(90.68186631944444 56.76605902777778)"/></g><path d="M495.77 1040c18.47 0 33.45 14.97 33.45 33.44s-14.98 33.45-33.45 33.45h-66.9c-18.46 0-33.43-15-33.43-33.46 0-18.47 14.97-33.44 33.44-33.44z" stroke="#1071e5" stroke-width="4" fill="#6db1ff"/><g><use xlink:href="#J" transform="matrix(1,0,0,1,400.4390965365134,1045) translate(36.951171875 36.66840277777778)"/></g><path d="M821.86 2124.57a8 8 0 0 1 9.6 0l97.06 72.8a4.5 4.5 0 0 1 0 7.2l-97.06 72.8a8 8 0 0 1-9.6 0l-97.06-72.8a4.5 4.5 0 0 1 0-7.2z" stroke="#ff80df" stroke-width="4" fill="#ffd6f5"/><g><use xlink:href="#h" transform="matrix(1,0,0,1,725,2125.972508096574) translate(42.50521701388889 83.05121527777777)"/><use xlink:href="#i" transform="matrix(1,0,0,1,725,2125.972508096574) translate(94.28473090277778 83.05121527777777)"/></g><path d="M753.18 2385.8a7.8 7.8 0 0 1 7.55-5.8h160.4a4.6 4.6 0 0 1 4.44 5.8l-25.43 95.38a7.8 7.8 0 0 1-7.55 5.8H732.2a4.6 4.6 0 0 1-4.45-5.8z" stroke="#54c45e" stroke-width="4" fill="#c3f7c8"/><g><use xlink:href="#G" transform="matrix(1,0,0,1,731.2019191514639,2385) translate(26.456605902777774 56.76605902777778)"/><use xlink:href="#H" transform="matrix(1,0,0,1,731.2019191514639,2385) translate(90.68186631944444 56.76605902777778)"/></g><path d="M462.33 1109.4v52.22" stroke="#3a414a" fill="none"/><path d="M462.8 1109.4h-.95v-.5h.95z" stroke="#3a414a" stroke-width=".05" fill="#3a414a"/><path d="M462.33 1176.38l-4.64-14.26h9.26z" stroke="#3a414a" fill="#3a414a"/><path d="M462.33 1289.8v31.82" stroke="#3a414a" fill="none"/><path d="M462.8 1289.8h-.95v-.5h.95z" stroke="#3a414a" stroke-width=".05" fill="#3a414a"/><path d="M462.33 1336.38l-4.64-14.26h9.26z" stroke="#3a414a" fill="#3a414a"/><path d="M737.9 2433.5H566.98" stroke="#3a414a" fill="none"/><path d="M738.27 2433.96h-.4v-.95h.65z" stroke="#3a414a" stroke-width=".05" fill="#3a414a"/><path d="M552.2 2433.5l14.28-4.65v9.27z" stroke="#3a414a" fill="#3a414a"/><path d="M826.66 2120.47v-33.5a6 6 0 0 0-6-6H575.04a6 6 0 0 0-6 6v44.58" stroke="#3a414a" fill="none"/><path d="M827.13 2121l-.47-.03-.48.03v-.54h.96z" stroke="#3a414a" stroke-width=".05" fill="#3a414a"/><path d="M569.04 2146.32l-4.63-14.27h9.28z" stroke="#3a414a" fill="#3a414a"/><g><use xlink:href="#K" transform="matrix(1,0,0,1,645.696917794022,2084.968379958512) translate(0.005000000000002558 17.22222222222222)"/><use xlink:href="#L" transform="matrix(1,0,0,1,645.696917794022,2084.968379958512) translate(35.17861111111112 17.22222222222222)"/></g><defs><path d="M180 0v-1490h510c348 0 508 209 508 474 0 266-160 477-507 477H370V0H180zm190-706h312c236 0 327-133 327-310 0-176-91-307-329-307H370v617" id="M"/><path d="M613 24c-304 0-509-231-509-576 0-350 205-580 509-580 305 0 511 230 511 580 0 345-206 576-511 576zm0-161c226 0 329-195 329-415 0-222-103-419-329-419-223 0-326 196-326 419 0 220 103 415 326 415" id="N"/><path d="M409 0L70-1118h191c89 329 165 560 243 925 75-353 154-601 240-925h192c85 325 161 564 235 922 77-354 157-598 244-922h191L1267 0h-179c-86-307-176-590-250-913C763-588 675-308 588 0H409" id="O"/><path d="M628 24c-324 0-524-230-524-574 0-343 198-582 503-582 237 0 487 146 487 559v75H286c9 234 145 362 343 362 132 0 231-58 273-172l174 48C1024-91 857 24 628 24zM287-650h624c-17-190-120-322-304-322-192 0-309 151-320 322" id="P"/><path d="M158 0v-1118h174v172h12c41-113 157-188 290-188 26 0 70 2 91 3v181c-11-2-60-10-108-10-161 0-279 109-279 260V0H158" id="Q"/><g id="a"><use transform="matrix(0.010850694444444444,0,0,0.010850694444444444,0,0)" xlink:href="#M"/><use transform="matrix(0.010850694444444444,0,0,0.010850694444444444,14.073350694444445,0)" xlink:href="#N"/><use transform="matrix(0.010850694444444444,0,0,0.010850694444444444,26.99652777777778,0)" xlink:href="#O"/><use transform="matrix(0.010850694444444444,0,0,0.010850694444444444,44.78081597222222,0)" xlink:href="#P"/><use transform="matrix(0.010850694444444444,0,0,0.010850694444444444,57.736545138888886,0)" xlink:href="#Q"/></g><path d="M784 20c-382 0-662-292-662-764 0-473 280-766 662-766s660 293 660 766c0 472-278 764-660 764zm0-176c266 0 475-207 475-588 0-383-209-590-475-590-268 0-477 208-477 590 0 380 209 588 477 588" id="R"/><path d="M338-670V0H158v-1118h173l1 207c72-158 192-221 342-221 226 0 378 139 378 422V0H872v-695c0-172-96-275-252-275-161 0-282 109-282 300" id="S"/><g id="b"><use transform="matrix(0.010850694444444444,0,0,0.010850694444444444,0,0)" xlink:href="#R"/><use transform="matrix(0.010850694444444444,0,0,0.010850694444444444,16.9921875,0)" xlink:href="#S"/></g><path d="M692-1560L212 224H46l480-1784h166" id="T"/><use transform="matrix(0.010850694444444444,0,0,0.010850694444444444,0,0)" xlink:href="#T" id="c"/><path d="M180 0v-1490h528c311 0 458 177 458 395 0 191-114 278-244 313v14c139 9 302 137 302 371 0 225-148 397-499 397H180zm190-168h350c232 0 321-102 321-231 0-149-120-277-311-277H370v508zm0-668h328c160 0 286-101 286-255 0-129-87-231-280-231H370v486" id="U"/><path d="M598-1118v154H368v674c0 100 37 144 132 144 23 0 62-6 92-12L629-6c-37 13-88 20-134 20-193 0-307-107-307-290v-688H20v-154h168v-266h180v266h230" id="V"/><g id="d"><use transform="matrix(0.010850694444444444,0,0,0.010850694444444444,0,0)" xlink:href="#U"/><use transform="matrix(0.010850694444444444,0,0,0.010850694444444444,14.539930555555555,0)" xlink:href="#N"/><use transform="matrix(0.010850694444444444,0,0,0.010850694444444444,27.864583333333332,0)" xlink:href="#N"/><use transform="matrix(0.010850694444444444,0,0,0.010850694444444444,41.18923611111111,0)" xlink:href="#V"/></g><path d="M538 24C308 24 148-78 108-271l171-41c32 123 123 178 257 178 156 0 256-77 256-169 0-77-54-128-164-154l-186-44c-203-48-300-148-300-305 0-192 176-326 414-326 230 0 351 112 402 269l-163 42c-31-80-94-158-238-158-133 0-233 69-233 162 0 83 57 129 188 160l169 40c203 48 298 149 298 302 0 196-179 339-441 339" id="W"/><path d="M295 13c-75 0-135-60-135-135s60-135 135-135 135 60 135 135S370 13 295 13" id="X"/><g id="e"><use transform="matrix(0.010850694444444444,0,0,0.010850694444444444,0,0)" xlink:href="#M"/><use transform="matrix(0.010850694444444444,0,0,0.010850694444444444,14.073350694444445,0)" xlink:href="#N"/><use transform="matrix(0.010850694444444444,0,0,0.010850694444444444,27.39800347222222,0)" xlink:href="#W"/><use transform="matrix(0.010850694444444444,0,0,0.010850694444444444,39.127604166666664,0)" xlink:href="#X"/></g><path d="M370-1490V0H180v-1490h190" id="Y"/><path d="M158 0v-1118h180V0H158zm91-1301c-68 0-125-53-125-119s57-119 125-119c69 0 126 53 126 119s-57 119-126 119" id="Z"/><g id="f"><use transform="matrix(0.010850694444444444,0,0,0.010850694444444444,0,0)" xlink:href="#Y"/><use transform="matrix(0.010850694444444444,0,0,0.010850694444444444,5.967881944444445,0)" xlink:href="#S"/><use transform="matrix(0.010850694444444444,0,0,0.010850694444444444,19.09722222222222,0)" xlink:href="#Z"/><use transform="matrix(0.010850694444444444,0,0,0.010850694444444444,24.479166666666664,0)" xlink:href="#V"/></g><path d="M180 0v-1490h270l367 940c28 72 75 218 110 339 35-117 81-264 110-339l362-940h271V0h-187c2-448-5-837 7-1287-157 497-311 829-483 1287H842C666-458 514-784 354-1284c12 438 5 843 7 1284H180" id="aa"/><path d="M577 24c-279 0-473-224-473-580 0-354 195-576 474-576 218 0 287 134 324 193h14v-551h180V0H922v-173h-20C865-111 790 24 577 24zm27-161c203 0 314-172 314-421 0-247-108-413-314-413-212 0-317 181-317 413 0 235 108 421 317 421" id="ab"/><g id="g"><use transform="matrix(0.010850694444444444,0,0,0.010850694444444444,0,0)" xlink:href="#aa"/><use transform="matrix(0.010850694444444444,0,0,0.010850694444444444,20.07378472222222,0)" xlink:href="#N"/><use transform="matrix(0.010850694444444444,0,0,0.010850694444444444,33.3984375,0)" xlink:href="#ab"/><use transform="matrix(0.010850694444444444,0,0,0.010850694444444444,47.00520833333333,0)" xlink:href="#P"/></g><g id="h"><use transform="matrix(0.010850694444444444,0,0,0.010850694444444444,0,0)" xlink:href="#M"/><use transform="matrix(0.010850694444444444,0,0,0.010850694444444444,14.073350694444445,0)" xlink:href="#N"/><use transform="matrix(0.010850694444444444,0,0,0.010850694444444444,27.39800347222222,0)" xlink:href="#W"/><use transform="matrix(0.010850694444444444,0,0,0.010850694444444444,39.127604166666664,0)" xlink:href="#X"/></g><path d="M783 20c-382 0-661-292-661-764 0-473 279-766 661-766 302 0 548 182 601 489h-190c-42-204-217-313-411-313-268 0-476 208-476 590 0 381 209 588 476 588 195 0 369-110 411-313h190c-52 303-296 489-601 489" id="ac"/><path d="M338-670V0H158v-1490h180v566c73-149 190-208 336-208 226 0 379 139 379 422V0H872v-695c0-172-96-275-252-275-161 0-282 109-282 300" id="ad"/><path d="M613 24c-304 0-509-231-509-576 0-350 205-580 509-580 216 0 392 114 453 309l-173 49c-33-115-133-197-280-197-223 0-326 196-326 419 0 220 103 415 326 415 150 0 252-85 285-206l172 49C1010-95 832 24 613 24" id="ae"/><path d="M158 0v-1490h180v865h22l478-493h223L593-638 1096 0H865L456-523 338-412V0H158" id="af"/><g id="i"><use transform="matrix(0.010850694444444444,0,0,0.010850694444444444,0,0)" xlink:href="#ac"/><use transform="matrix(0.010850694444444444,0,0,0.010850694444444444,16.23263888888889,0)" xlink:href="#ad"/><use transform="matrix(0.010850694444444444,0,0,0.010850694444444444,29.37282986111111,0)" xlink:href="#P"/><use transform="matrix(0.010850694444444444,0,0,0.010850694444444444,42.32855902777778,0)" xlink:href="#ae"/><use transform="matrix(0.010850694444444444,0,0,0.010850694444444444,55.02387152777778,0)" xlink:href="#af"/></g><path fill="#333" d="M750 21c-371 0-615-218-615-544v-967h305v942c0 174 123 299 310 299s309-125 309-299v-942h306v967c0 326-247 544-615 544" id="ag"/><path fill="#333" d="M572 22C302 22 117-98 78-306l279-48c29 105 101 156 224 156 114 0 185-48 185-115 0-118-228-130-337-155-215-49-322-150-322-317 0-215 187-347 470-347 265 0 424 116 466 298l-266 47c-24-76-87-130-196-130-98 0-174 46-174 113 0 56 38 95 144 117l201 40c216 44 320 143 320 302 0 220-207 367-500 367" id="ah"/><path fill="#333" d="M633 22C291 22 81-200 81-553c0-345 210-579 537-579 292 0 525 185 525 567v84H378c7 183 109 277 260 277 105 0 184-46 216-132l272 51C1071-99 893 22 633 22zM380-669h474c-15-146-94-237-233-237-143 0-229 99-241 237" id="ai"/><path fill="#333" d="M128 0v-1118h290v195h12c54-169 184-238 367-200v268c-27-8-86-15-130-15-138 0-239 95-239 234V0H128" id="aj"/><g id="j"><use transform="matrix(0.008680555555555556,0,0,0.008680555555555556,0,0)" xlink:href="#ag"/><use transform="matrix(0.008680555555555556,0,0,0.008680555555555556,13.012152777777779,0)" xlink:href="#ah"/><use transform="matrix(0.008680555555555556,0,0,0.008680555555555556,22.96875,0)" xlink:href="#ai"/><use transform="matrix(0.008680555555555556,0,0,0.008680555555555556,33.55902777777778,0)" xlink:href="#aj"/></g><path fill="#333" d="M440-1490V0H135v-1490h305" id="ak"/><path fill="#333" d="M428-647V0H128v-1118h283l4 231c63-156 176-245 348-245 232 0 384 159 384 421V0H847v-659c0-139-76-222-202-222-128 0-217 86-217 234" id="al"/><path fill="#333" d="M128 418v-1536h295v188h14c41-89 129-202 319-202 248 0 453 193 453 575 0 372-197 576-455 576-183 0-275-108-317-198h-9v597H128zm534-640c156 0 240-139 240-336 0-196-83-334-240-334-154 0-241 131-241 334 0 202 88 336 241 336" id="am"/><path fill="#333" d="M513 14c-232 0-385-159-385-421v-711h300v659c0 139 76 222 202 222 127 0 217-86 217-234v-647h301V0H864l-4-232C797-74 683 14 513 14" id="an"/><path fill="#333" d="M683-1118v229H474v562c0 71 29 104 102 104 23 0 73-7 95-13l43 225C647 9 580 16 520 16 296 16 174-96 174-301v-588H20v-229h154v-266h300v266h209" id="ao"/><g id="k"><use transform="matrix(0.008680555555555556,0,0,0.008680555555555556,0,0)" xlink:href="#ak"/><use transform="matrix(0.008680555555555556,0,0,0.008680555555555556,4.991319444444445,0)" xlink:href="#al"/><use transform="matrix(0.008680555555555556,0,0,0.008680555555555556,16.05902777777778,0)" xlink:href="#am"/><use transform="matrix(0.008680555555555556,0,0,0.008680555555555556,27.265625,0)" xlink:href="#an"/><use transform="matrix(0.008680555555555556,0,0,0.008680555555555556,38.333333333333336,0)" xlink:href="#ao"/></g><path fill="#333" d="M135 0v-1490h305v1237h643V0H135" id="ap"/><path fill="#333" d="M128 0v-1118h300V0H128zm150-1264c-91 0-165-68-165-154 0-85 74-154 165-154 90 0 165 69 165 154 0 86-75 154-165 154" id="aq"/><path fill="#333" d="M128 0v-1118h278l12 217c60-163 185-234 319-234 143 0 236 81 288 251 63-172 205-251 359-251 205 0 357 138 357 381V0h-301v-697c0-126-76-187-177-187-114 0-184 79-184 196V0H789v-705c0-109-72-179-174-179-106 0-187 74-187 208V0H128" id="ar"/><g id="l"><use transform="matrix(0.008680555555555556,0,0,0.008680555555555556,0,0)" xlink:href="#ap"/><use transform="matrix(0.008680555555555556,0,0,0.008680555555555556,10.052083333333334,0)" xlink:href="#aq"/><use transform="matrix(0.008680555555555556,0,0,0.008680555555555556,14.869791666666668,0)" xlink:href="#ar"/><use transform="matrix(0.008680555555555556,0,0,0.008680555555555556,31.093750000000004,0)" xlink:href="#aq"/><use transform="matrix(0.008680555555555556,0,0,0.008680555555555556,35.911458333333336,0)" xlink:href="#ao"/></g><path fill="#333" d="M681 22C323 22 94-145 85-462h297c10 151 131 226 296 226 163 0 271-77 271-190 0-102-95-149-257-189l-164-41c-252-61-403-188-403-405 0-269 236-449 560-449 330 0 546 183 551 445H941c-11-119-106-188-259-188-156 0-244 72-244 172-3 156 226 185 373 221 250 61 445 186 445 436 0 271-213 446-575 446" id="as"/><path fill="#333" d="M361 0L31-1118h315c68 295 127 523 188 845 63-317 128-551 199-845h276c71 296 131 525 196 846 57-321 119-552 186-846h319L1378 0h-305c-73-261-148-486-204-771C813-484 740-261 666 0H361" id="at"/><path fill="#333" d="M628 22C291 22 81-210 81-554c0-346 210-578 547-578 265 0 455 142 497 372l-279 52c-25-116-99-188-215-188-160 0-244 139-244 341 0 200 84 341 244 341 116 0 193-74 217-195l279 51C1085-123 896 22 628 22" id="au"/><path fill="#333" d="M428-647V0H128v-1490h294v586c65-146 175-228 341-228 232 0 385 159 385 421V0H847v-659c0-139-76-222-202-222-128 0-217 86-217 234" id="av"/><g id="m"><use transform="matrix(0.008680555555555556,0,0,0.008680555555555556,0,0)" xlink:href="#as"/><use transform="matrix(0.008680555555555556,0,0,0.008680555555555556,11.640625,0)" xlink:href="#at"/><use transform="matrix(0.008680555555555556,0,0,0.008680555555555556,26.753472222222218,0)" xlink:href="#aq"/><use transform="matrix(0.008680555555555556,0,0,0.008680555555555556,31.571180555555557,0)" xlink:href="#ao"/><use transform="matrix(0.008680555555555556,0,0,0.008680555555555556,37.907986111111114,0)" xlink:href="#au"/><use transform="matrix(0.008680555555555556,0,0,0.008680555555555556,48.36805555555556,0)" xlink:href="#av"/></g><path fill="#333" d="M135 0v-1490h305v602h649v-602h306V0h-306v-635H440V0H135" id="aw"/><g id="n"><use transform="matrix(0.008680555555555556,0,0,0.008680555555555556,0,0)" xlink:href="#aw"/><use transform="matrix(0.008680555555555556,0,0,0.008680555555555556,13.28125,0)" xlink:href="#aq"/><use transform="matrix(0.008680555555555556,0,0,0.008680555555555556,18.098958333333336,0)" xlink:href="#ao"/></g><g id="o"><use transform="matrix(0.008680555555555556,0,0,0.008680555555555556,0,0)" xlink:href="#ap"/><use transform="matrix(0.008680555555555556,0,0,0.008680555555555556,10.052083333333334,0)" xlink:href="#aq"/><use transform="matrix(0.008680555555555556,0,0,0.008680555555555556,14.869791666666668,0)" xlink:href="#ar"/><use transform="matrix(0.008680555555555556,0,0,0.008680555555555556,31.093750000000004,0)" xlink:href="#aq"/><use transform="matrix(0.008680555555555556,0,0,0.008680555555555556,35.911458333333336,0)" xlink:href="#ao"/></g><path fill="#333" d="M135 0v-1490h340l471 754c59 97 122 210 187 365-32-387-14-721-19-1119h312V0h-341C855-382 627-689 427-1113c32 420 16 695 20 1113H135" id="ax"/><path fill="#333" d="M628 22C291 22 81-210 81-554c0-346 210-578 547-578 336 0 547 232 547 578 0 344-211 576-547 576zm0-236c160 0 242-146 242-341 0-197-82-341-242-341S387-753 387-555c0 195 81 341 241 341" id="ay"/><g id="p"><use transform="matrix(0.008680555555555556,0,0,0.008680555555555556,0,0)" xlink:href="#ax"/><use transform="matrix(0.008680555555555556,0,0,0.008680555555555556,13.550347222222223,0)" xlink:href="#ay"/><use transform="matrix(0.008680555555555556,0,0,0.008680555555555556,24.453125,0)" xlink:href="#ao"/></g><path d="M789 20c-398 0-667-293-667-764 0-473 273-766 655-766 315 0 558 198 612 487h-196c-61-191-204-311-415-311-262 0-471 207-471 590 0 380 208 588 482 588 249 0 420-165 425-427H828v-166h572v163c0 370-256 606-611 606" id="az"/><path d="M657 26c-323 0-524-166-541-416h195c15 169 171 246 346 246 202 0 356-106 356-265 5-203-294-238-475-293-239-73-380-191-380-389 0-252 224-419 512-419 294 0 499 171 508 396H992c-17-145-151-228-328-228-193 0-321 102-321 242 0 156 175 211 284 241l149 41c160 44 422 134 422 412 0 244-197 432-541 432" id="aA"/><g id="q"><use transform="matrix(0.010850694444444444,0,0,0.010850694444444444,0,0)" xlink:href="#az"/><use transform="matrix(0.010850694444444444,0,0,0.010850694444444444,16.57986111111111,0)" xlink:href="#M"/><use transform="matrix(0.010850694444444444,0,0,0.010850694444444444,30.772569444444443,0)" xlink:href="#aA"/></g><path fill="#333" d="M440 22C227 22 68-92 68-313c0-250 202-322 422-343 195-21 271-24 271-105 0-95-63-149-175-149-116 0-187 57-211 129l-275-46c57-194 237-305 487-305 240 0 474 108 474 379V0H777v-155h-10C713-51 605 22 440 22zm85-211c140 0 238-93 238-211v-121c-37 26-156 42-222 51-111 16-185 59-185 149 0 87 70 132 169 132" id="aB"/><path fill="#333" d="M443 0L31-1118h319c90 293 199 572 268 885 66-313 175-593 264-885h315L784 0H443" id="aC"/><g id="r"><use transform="matrix(0.008680555555555556,0,0,0.008680555555555556,0,0)" xlink:href="#as"/><use transform="matrix(0.008680555555555556,0,0,0.008680555555555556,11.640625,0)" xlink:href="#aB"/><use transform="matrix(0.008680555555555556,0,0,0.008680555555555556,21.65798611111111,0)" xlink:href="#aC"/><use transform="matrix(0.008680555555555556,0,0,0.008680555555555556,31.99652777777778,0)" xlink:href="#ai"/></g><path fill="#333" d="M428-1490V0H128v-1490h300" id="aD"/><g id="s"><use transform="matrix(0.008680555555555556,0,0,0.008680555555555556,0,0)" xlink:href="#ak"/><use transform="matrix(0.008680555555555556,0,0,0.008680555555555556,4.991319444444445,0)" xlink:href="#al"/><use transform="matrix(0.008680555555555556,0,0,0.008680555555555556,16.05902777777778,0)" xlink:href="#aq"/><use transform="matrix(0.008680555555555556,0,0,0.008680555555555556,20.876736111111114,0)" xlink:href="#ao"/><use transform="matrix(0.008680555555555556,0,0,0.008680555555555556,27.387152777777782,0)" xlink:href="#aq"/><use transform="matrix(0.008680555555555556,0,0,0.008680555555555556,32.204861111111114,0)" xlink:href="#aB"/><use transform="matrix(0.008680555555555556,0,0,0.008680555555555556,42.52604166666667,0)" xlink:href="#aD"/></g><path fill="#333" d="M135 0v-1490h581c339 0 533 210 533 503 0 295-197 500-540 500H440V0H135zm305-733h220c186 0 274-104 274-254s-88-251-275-251H440v505" id="aE"/><g id="t"><use transform="matrix(0.008680555555555556,0,0,0.008680555555555556,0,0)" xlink:href="#aE"/><use transform="matrix(0.008680555555555556,0,0,0.008680555555555556,11.371527777777779,0)" xlink:href="#ay"/><use transform="matrix(0.008680555555555556,0,0,0.008680555555555556,22.274305555555557,0)" xlink:href="#ah"/><use transform="matrix(0.008680555555555556,0,0,0.008680555555555556,32.23090277777778,0)" xlink:href="#aq"/><use transform="matrix(0.008680555555555556,0,0,0.008680555555555556,37.048611111111114,0)" xlink:href="#ao"/><use transform="matrix(0.008680555555555556,0,0,0.008680555555555556,43.55902777777778,0)" xlink:href="#aq"/><use transform="matrix(0.008680555555555556,0,0,0.008680555555555556,48.376736111111114,0)" xlink:href="#ay"/><use transform="matrix(0.008680555555555556,0,0,0.008680555555555556,59.27951388888889,0)" xlink:href="#al"/></g><path d="M98-1322v-168h1126v168H757V0H567v-1322H98" id="aF"/><path d="M471 26C259 26 90-98 90-318c0-256 228-303 435-329 202-27 287-16 287-108 0-139-79-219-234-219-161 0-248 86-283 164l-173-57c86-203 278-265 451-265 150 0 419 46 419 395V0H815v-152h-12C765-73 660 26 471 26zm31-159c199 0 310-134 310-271v-155c-30 35-226 55-295 64-131 17-246 59-246 186 0 116 97 176 231 176" id="aG"/><path d="M611 442c-248 0-391-105-460-228l146-94c47 65 117 165 314 165 178 0 307-82 307-266v-224h-17C863-141 792-18 576-18c-268 0-472-195-472-546 0-346 197-568 476-568 216 0 288 133 326 193h17v-179h175V29c0 289-215 413-487 413zm-5-620c203 0 314-146 314-390 0-237-108-403-314-403-213 0-319 180-319 403 0 230 109 390 319 390" id="aH"/><g id="u"><use transform="matrix(0.010850694444444444,0,0,0.010850694444444444,0,0)" xlink:href="#aF"/><use transform="matrix(0.010850694444444444,0,0,0.010850694444444444,13.0859375,0)" xlink:href="#Q"/><use transform="matrix(0.010850694444444444,0,0,0.010850694444444444,21.451822916666664,0)" xlink:href="#aG"/><use transform="matrix(0.010850694444444444,0,0,0.010850694444444444,33.93012152777777,0)" xlink:href="#ae"/><use transform="matrix(0.010850694444444444,0,0,0.010850694444444444,46.62543402777778,0)" xlink:href="#af"/><use transform="matrix(0.010850694444444444,0,0,0.010850694444444444,58.82161458333333,0)" xlink:href="#Z"/><use transform="matrix(0.010850694444444444,0,0,0.010850694444444444,64.20355902777777,0)" xlink:href="#S"/><use transform="matrix(0.010850694444444444,0,0,0.010850694444444444,77.33289930555554,0)" xlink:href="#aH"/></g><g id="v"><use transform="matrix(0.010850694444444444,0,0,0.010850694444444444,0,0)" xlink:href="#aa"/><use transform="matrix(0.010850694444444444,0,0,0.010850694444444444,20.07378472222222,0)" xlink:href="#N"/><use transform="matrix(0.010850694444444444,0,0,0.010850694444444444,33.3984375,0)" xlink:href="#ab"/><use transform="matrix(0.010850694444444444,0,0,0.010850694444444444,47.00520833333333,0)" xlink:href="#P"/></g><g id="w"><use transform="matrix(0.008680555555555556,0,0,0.008680555555555556,0,0)" xlink:href="#as"/><use transform="matrix(0.008680555555555556,0,0,0.008680555555555556,11.640625,0)" xlink:href="#ao"/><use transform="matrix(0.008680555555555556,0,0,0.008680555555555556,18.23784722222222,0)" xlink:href="#aB"/><use transform="matrix(0.008680555555555556,0,0,0.008680555555555556,28.55902777777778,0)" xlink:href="#ao"/><use transform="matrix(0.008680555555555556,0,0,0.008680555555555556,35.06944444444444,0)" xlink:href="#aq"/><use transform="matrix(0.008680555555555556,0,0,0.008680555555555556,39.88715277777778,0)" xlink:href="#ay"/><use transform="matrix(0.008680555555555556,0,0,0.008680555555555556,50.78993055555556,0)" xlink:href="#al"/></g><path fill="#333" d="M795 20C377 20 94-272 94-743c0-483 302-767 694-767 335 0 593 206 635 500h-310c-42-142-154-229-320-229-230 0-389 177-389 493s154 495 393 495c212 0 340-120 345-311H818v-232h620v186c0 391-269 628-643 628" id="aI"/><g id="x"><use transform="matrix(0.008680555555555556,0,0,0.008680555555555556,0,0)" xlink:href="#aI"/><use transform="matrix(0.008680555555555556,0,0,0.008680555555555556,13.34201388888889,0)" xlink:href="#aE"/><use transform="matrix(0.008680555555555556,0,0,0.008680555555555556,24.861111111111118,0)" xlink:href="#as"/></g><path fill="#333" d="M786 20C389 20 94-260 94-744c0-487 299-766 692-766 339 0 597 194 641 529h-309c-28-162-156-258-326-258-233 0-388 179-388 495 0 323 157 493 387 493 170 0 298-97 328-259h309c-34 277-266 530-642 530" id="aJ"/><path fill="#333" d="M537 19C279 19 81-185 81-557c0-382 206-575 454-575 190 0 278 113 318 202h10v-560h300V0H868v-179h-15C812-89 719 19 537 19zm92-241c153 0 240-134 240-336 0-203-86-334-240-334-158 0-240 138-240 334 0 197 84 336 240 336" id="aK"/><g id="y"><use transform="matrix(0.008680555555555556,0,0,0.008680555555555556,0,0)" xlink:href="#aJ"/><use transform="matrix(0.008680555555555556,0,0,0.008680555555555556,13.151041666666668,0)" xlink:href="#ay"/><use transform="matrix(0.008680555555555556,0,0,0.008680555555555556,24.053819444444446,0)" xlink:href="#ay"/><use transform="matrix(0.008680555555555556,0,0,0.008680555555555556,34.95659722222223,0)" xlink:href="#aj"/><use transform="matrix(0.008680555555555556,0,0,0.008680555555555556,41.762152777777786,0)" xlink:href="#aK"/><use transform="matrix(0.008680555555555556,0,0,0.008680555555555556,52.96875000000001,0)" xlink:href="#ah"/></g><path d="M130 0v-134l666-991c45-67 96-135 147-202-269 9-546 3-821 5v-168h1036v136L502-379c-49 72-103 145-157 216 268-9 546-3 821-5V0H130" id="aL"/><g id="z"><use transform="matrix(0.010850694444444444,0,0,0.010850694444444444,0,0)" xlink:href="#aL"/><use transform="matrix(0.010850694444444444,0,0,0.010850694444444444,13.975694444444445,0)" xlink:href="#P"/><use transform="matrix(0.010850694444444444,0,0,0.010850694444444444,26.93142361111111,0)" xlink:href="#Q"/><use transform="matrix(0.010850694444444444,0,0,0.010850694444444444,34.928385416666664,0)" xlink:href="#N"/></g><path d="M338-1490V0H158v-1490h180" id="aM"/><g id="A"><use transform="matrix(0.010850694444444444,0,0,0.010850694444444444,0,0)" xlink:href="#aF"/><use transform="matrix(0.010850694444444444,0,0,0.010850694444444444,14.344618055555555,0)" xlink:href="#Z"/><use transform="matrix(0.010850694444444444,0,0,0.010850694444444444,19.7265625,0)" xlink:href="#aM"/><use transform="matrix(0.010850694444444444,0,0,0.010850694444444444,25.43402777777778,0)" xlink:href="#V"/></g><g id="B"><use transform="matrix(0.010850694444444444,0,0,0.010850694444444444,0,0)" xlink:href="#aa"/><use transform="matrix(0.010850694444444444,0,0,0.010850694444444444,20.07378472222222,0)" xlink:href="#N"/><use transform="matrix(0.010850694444444444,0,0,0.010850694444444444,33.3984375,0)" xlink:href="#V"/><use transform="matrix(0.010850694444444444,0,0,0.010850694444444444,40.45138888888889,0)" xlink:href="#N"/><use transform="matrix(0.010850694444444444,0,0,0.010850694444444444,53.77604166666667,0)" xlink:href="#Q"/></g><g id="C"><use transform="matrix(0.008680555555555556,0,0,0.008680555555555556,0,0)" xlink:href="#aK"/><use transform="matrix(0.008680555555555556,0,0,0.008680555555555556,11.46701388888889,0)" xlink:href="#ao"/></g><path fill="#333" d="M1224-471L205-19v-287l694-281v-14L205-883v-289l1019 454v247" id="aN"/><use transform="matrix(0.008680555555555556,0,0,0.008680555555555556,0,0)" xlink:href="#aN" id="D"/><path fill="#333" d="M659 0H135v-1490h529c448 0 721 280 721 744 0 466-273 746-726 746zM440-263h204c287 0 437-148 437-483 0-333-150-481-435-481H440v964" id="aO"/><g id="E"><use transform="matrix(0.008680555555555556,0,0,0.008680555555555556,0,0)" xlink:href="#aE"/><use transform="matrix(0.008680555555555556,0,0,0.008680555555555556,11.519097222222223,0)" xlink:href="#ak"/><use transform="matrix(0.008680555555555556,0,0,0.008680555555555556,16.510416666666668,0)" xlink:href="#aO"/></g><g id="F"><use transform="matrix(0.008680555555555556,0,0,0.008680555555555556,0,0)" xlink:href="#aE"/><use transform="matrix(0.008680555555555556,0,0,0.008680555555555556,11.371527777777779,0)" xlink:href="#ai"/><use transform="matrix(0.008680555555555556,0,0,0.008680555555555556,21.961805555555557,0)" xlink:href="#aj"/><use transform="matrix(0.008680555555555556,0,0,0.008680555555555556,29.331597222222218,0)" xlink:href="#aq"/><use transform="matrix(0.008680555555555556,0,0,0.008680555555555556,34.14930555555556,0)" xlink:href="#ay"/><use transform="matrix(0.008680555555555556,0,0,0.008680555555555556,45.052083333333336,0)" xlink:href="#aK"/></g><path d="M481 0L54-1118h197c107 314 236 620 325 951 87-331 217-637 324-951h197L670 0H481" id="aP"/><g id="G"><use transform="matrix(0.010850694444444444,0,0,0.010850694444444444,0,0)" xlink:href="#aa"/><use transform="matrix(0.010850694444444444,0,0,0.010850694444444444,20.07378472222222,0)" xlink:href="#N"/><use transform="matrix(0.010850694444444444,0,0,0.010850694444444444,32.96440972222222,0)" xlink:href="#aP"/><use transform="matrix(0.010850694444444444,0,0,0.010850694444444444,45.01953125,0)" xlink:href="#P"/></g><g id="H"><use transform="matrix(0.010850694444444444,0,0,0.010850694444444444,0,0)" xlink:href="#aa"/><use transform="matrix(0.010850694444444444,0,0,0.010850694444444444,20.07378472222222,0)" xlink:href="#N"/><use transform="matrix(0.010850694444444444,0,0,0.010850694444444444,33.3984375,0)" xlink:href="#V"/><use transform="matrix(0.010850694444444444,0,0,0.010850694444444444,40.45138888888889,0)" xlink:href="#N"/><use transform="matrix(0.010850694444444444,0,0,0.010850694444444444,53.77604166666667,0)" xlink:href="#Q"/><use transform="matrix(0.010850694444444444,0,0,0.010850694444444444,62.14192708333333,0)" xlink:href="#W"/></g><g id="I"><use transform="matrix(0.008680555555555556,0,0,0.008680555555555556,0,0)" xlink:href="#ag"/><use transform="matrix(0.008680555555555556,0,0,0.008680555555555556,13.012152777777779,0)" xlink:href="#am"/><use transform="matrix(0.008680555555555556,0,0,0.008680555555555556,24.21875,0)" xlink:href="#aK"/><use transform="matrix(0.008680555555555556,0,0,0.008680555555555556,35.42534722222222,0)" xlink:href="#aB"/><use transform="matrix(0.008680555555555556,0,0,0.008680555555555556,45.74652777777778,0)" xlink:href="#ao"/><use transform="matrix(0.008680555555555556,0,0,0.008680555555555556,52.08333333333333,0)" xlink:href="#ai"/><use transform="matrix(0.008680555555555556,0,0,0.008680555555555556,62.67361111111111,0)" xlink:href="#aK"/></g><g id="J"><use transform="matrix(0.010850694444444444,0,0,0.010850694444444444,0,0)" xlink:href="#aA"/><use transform="matrix(0.010850694444444444,0,0,0.010850694444444444,14.2578125,0)" xlink:href="#V"/><use transform="matrix(0.010850694444444444,0,0,0.010850694444444444,21.63628472222222,0)" xlink:href="#aG"/><use transform="matrix(0.010850694444444444,0,0,0.010850694444444444,34.11458333333333,0)" xlink:href="#Q"/><use transform="matrix(0.010850694444444444,0,0,0.010850694444444444,42.827690972222214,0)" xlink:href="#V"/></g><g id="K"><use transform="matrix(0.008680555555555556,0,0,0.008680555555555556,0,0)" xlink:href="#ax"/><use transform="matrix(0.008680555555555556,0,0,0.008680555555555556,13.550347222222223,0)" xlink:href="#ay"/><use transform="matrix(0.008680555555555556,0,0,0.008680555555555556,24.453125,0)" xlink:href="#ao"/></g><g id="L"><use transform="matrix(0.008680555555555556,0,0,0.008680555555555556,0,0)" xlink:href="#ag"/><use transform="matrix(0.008680555555555556,0,0,0.008680555555555556,13.012152777777779,0)" xlink:href="#am"/><use transform="matrix(0.008680555555555556,0,0,0.008680555555555556,24.21875,0)" xlink:href="#aK"/><use transform="matrix(0.008680555555555556,0,0,0.008680555555555556,35.42534722222222,0)" xlink:href="#aB"/><use transform="matrix(0.008680555555555556,0,0,0.008680555555555556,45.74652777777778,0)" xlink:href="#ao"/><use transform="matrix(0.008680555555555556,0,0,0.008680555555555556,52.08333333333333,0)" xlink:href="#ai"/><use transform="matrix(0.008680555555555556,0,0,0.008680555555555556,62.67361111111111,0)" xlink:href="#aK"/></g></defs></g></svg>